<?xml version="1.0" encoding="UTF-8" standalone="no"?>
<!DOCTYPE svg PUBLIC "-//W3C//DTD SVG 1.1//EN"
 "http://www.w3.org/Graphics/SVG/1.1/DTD/svg11.dtd">
<!-- Generated by graphviz version 14.1.2 (20260124.0452)
 -->
<!-- Pages: 1 -->
<svg width="848pt" height="112pt"
 viewBox="0.00 0.00 848.00 112.00" xmlns="http://www.w3.org/2000/svg" xmlns:xlink="http://www.w3.org/1999/xlink">
<g id="graph0" class="graph" transform="scale(1 1) rotate(0) translate(4 108)">
<polygon fill="white" stroke="none" points="-4,4 -4,-108 843.5,-108 843.5,4 -4,4"/>
<!-- C0 -->
<g id="node1" class="node">
<title>C0</title>
<path fill="#fff3b0" stroke="black" d="M827.5,-104C827.5,-104 323.25,-104 323.25,-104 317.25,-104 311.25,-98 311.25,-92 311.25,-92 311.25,-12 311.25,-12 311.25,-6 317.25,0 323.25,0 323.25,0 827.5,0 827.5,0 833.5,0 839.5,-6 839.5,-12 839.5,-12 839.5,-92 839.5,-92 839.5,-98 833.5,-104 827.5,-104"/>
<text xml:space="preserve" text-anchor="middle" x="575.38" y="-90.5" font-family="Helvetica,sans-Serif" font-size="10.00">PMID:26633262</text>
<text xml:space="preserve" text-anchor="middle" x="575.38" y="-78.5" font-family="Helvetica,sans-Serif" font-size="10.00">steroid_sensitivity</text>
<text xml:space="preserve" text-anchor="middle" x="575.38" y="-54.5" font-family="Helvetica,sans-Serif" font-size="10.00">CLAIM C0</text>
<text xml:space="preserve" text-anchor="middle" x="575.38" y="-42.5" font-family="Helvetica,sans-Serif" font-size="10.00">Corticosteroidsreduced 28&#45;daymortality(27</text>
<text xml:space="preserve" text-anchor="middle" x="575.38" y="-30.5" font-family="Helvetica,sans-Serif" font-size="10.00">trials;n=3176;riskratio(RR)0.87,95%confidenceinterval(CI)0.76</text>
<text xml:space="preserve" text-anchor="middle" x="575.38" y="-18.5" font-family="Helvetica,sans-Serif" font-size="10.00">to 1.00;Pvalue</text>
<text xml:space="preserve" text-anchor="middle" x="575.38" y="-6.5" font-family="Helvetica,sans-Serif" font-size="10.00">=0.05,random&#45;effectsmodel).Thequalityofevidenceforthisoutcomewasdowngradedfromhightolowforimprecision(upper ...</text>
</g>
<!-- E1 -->
<g id="node2" class="node">
<title>E1</title>
<path fill="#dff7df" stroke="black" d="M214,-86C214,-86 12,-86 12,-86 6,-86 0,-80 0,-74 0,-74 0,-30 0,-30 0,-24 6,-18 12,-18 12,-18 214,-18 214,-18 220,-18 226,-24 226,-30 226,-30 226,-74 226,-74 226,-80 220,-86 214,-86"/>
<text xml:space="preserve" text-anchor="middle" x="113" y="-72.5" font-family="Helvetica,sans-Serif" font-size="10.00">E1 [Conclusion] (SUPPORT)</text>
<text xml:space="preserve" text-anchor="middle" x="113" y="-60.5" font-family="Helvetica,sans-Serif" font-size="10.00">Authors’conclusions Overall,low&#45;quality</text>
<text xml:space="preserve" text-anchor="middle" x="113" y="-48.5" font-family="Helvetica,sans-Serif" font-size="10.00">evidenceindicates thatcorticosteroids</text>
<text xml:space="preserve" text-anchor="middle" x="113" y="-36.5" font-family="Helvetica,sans-Serif" font-size="10.00">reducemortalityamong</text>
<text xml:space="preserve" text-anchor="middle" x="113" y="-24.5" font-family="Helvetica,sans-Serif" font-size="10.00">patientswithsepsis.Moderate&#45;quality evidence ...</text>
</g>
<!-- E1&#45;&gt;C0 -->
<g id="edge1" class="edge">
<title>E1&#45;&gt;C0</title>
<path fill="none" stroke="black" d="M226.33,-52C249.05,-52 273.87,-52 299.46,-52"/>
<polygon fill="black" stroke="black" points="299.35,-55.5 309.35,-52 299.35,-48.5 299.35,-55.5"/>
<text xml:space="preserve" text-anchor="middle" x="268.62" y="-53.95" font-family="Helvetica,sans-Serif" font-size="9.00">supports</text>
</g>
</g>
</svg>
