<?xml version="1.0" encoding="UTF-8" standalone="no"?>
<!DOCTYPE svg PUBLIC "-//W3C//DTD SVG 1.1//EN"
 "http://www.w3.org/Graphics/SVG/1.1/DTD/svg11.dtd">
<!-- Generated by graphviz version 14.1.2 (20260124.0452)
 -->
<!-- Pages: 1 -->
<svg width="247pt" height="112pt"
 viewBox="0.00 0.00 247.00 112.00" xmlns="http://www.w3.org/2000/svg" xmlns:xlink="http://www.w3.org/1999/xlink">
<g id="graph0" class="graph" transform="scale(1 1) rotate(0) translate(4 108)">
<polygon fill="white" stroke="none" points="-4,4 -4,-108 242.75,-108 242.75,4 -4,4"/>
<!-- C0 -->
<g id="node1" class="node">
<title>C0</title>
<path fill="#fff3b0" stroke="black" d="M226.75,-104C226.75,-104 12,-104 12,-104 6,-104 0,-98 0,-92 0,-92 0,-12 0,-12 0,-6 6,0 12,0 12,0 226.75,0 226.75,0 232.75,0 238.75,-6 238.75,-12 238.75,-12 238.75,-92 238.75,-92 238.75,-98 232.75,-104 226.75,-104"/>
<text xml:space="preserve" text-anchor="middle" x="119.38" y="-90.5" font-family="Helvetica,sans-Serif" font-size="10.00">PMID:36877030</text>
<text xml:space="preserve" text-anchor="middle" x="119.38" y="-78.5" font-family="Helvetica,sans-Serif" font-size="10.00">symptoms_diagnosis</text>
<text xml:space="preserve" text-anchor="middle" x="119.38" y="-54.5" font-family="Helvetica,sans-Serif" font-size="10.00">CLAIM C0</text>
<text xml:space="preserve" text-anchor="middle" x="119.38" y="-42.5" font-family="Helvetica,sans-Serif" font-size="10.00">Following the Preferred Reporting Items for tion of</text>
<text xml:space="preserve" text-anchor="middle" x="119.38" y="-30.5" font-family="Helvetica,sans-Serif" font-size="10.00">sepsis with the Sepsis&#45;2 and Sepsis&#45;3 criteria</text>
<text xml:space="preserve" text-anchor="middle" x="119.38" y="-18.5" font-family="Helvetica,sans-Serif" font-size="10.00">Systematic reviews and Meta&#45;Analyses guidelines,</text>
<text xml:space="preserve" text-anchor="middle" x="119.38" y="-6.5" font-family="Helvetica,sans-Serif" font-size="10.00">were further selected.</text>
</g>
</g>
</svg>
