<?xml version="1.0" encoding="UTF-8" standalone="no"?>
<!DOCTYPE svg PUBLIC "-//W3C//DTD SVG 1.1//EN"
 "http://www.w3.org/Graphics/SVG/1.1/DTD/svg11.dtd">
<!-- Generated by graphviz version 14.1.2 (20260124.0452)
 -->
<!-- Pages: 1 -->
<svg width="867pt" height="88pt"
 viewBox="0.00 0.00 867.00 88.00" xmlns="http://www.w3.org/2000/svg" xmlns:xlink="http://www.w3.org/1999/xlink">
<g id="graph0" class="graph" transform="scale(1 1) rotate(0) translate(4 84)">
<polygon fill="white" stroke="none" points="-4,4 -4,-84 863,-84 863,4 -4,4"/>
<!-- C0 -->
<g id="node1" class="node">
<title>C0</title>
<path fill="#fff3b0" stroke="black" d="M847,-80C847,-80 630.75,-80 630.75,-80 624.75,-80 618.75,-74 618.75,-68 618.75,-68 618.75,-12 618.75,-12 618.75,-6 624.75,0 630.75,0 630.75,0 847,0 847,0 853,0 859,-6 859,-12 859,-12 859,-68 859,-68 859,-74 853,-80 847,-80"/>
<text xml:space="preserve" text-anchor="middle" x="738.88" y="-66.5" font-family="Helvetica,sans-Serif" font-size="10.00">PMID:38598125</text>
<text xml:space="preserve" text-anchor="middle" x="738.88" y="-54.5" font-family="Helvetica,sans-Serif" font-size="10.00">symptoms_diagnosis</text>
<text xml:space="preserve" text-anchor="middle" x="738.88" y="-30.5" font-family="Helvetica,sans-Serif" font-size="10.00">CLAIM C0</text>
<text xml:space="preserve" text-anchor="middle" x="738.88" y="-18.5" font-family="Helvetica,sans-Serif" font-size="10.00">Hyperlactatemia in sepsis is associated with worse</text>
<text xml:space="preserve" text-anchor="middle" x="738.88" y="-6.5" font-family="Helvetica,sans-Serif" font-size="10.00">outcome.</text>
</g>
<!-- E1 -->
<g id="node2" class="node">
<title>E1</title>
<path fill="#ffd6d6" stroke="black" d="M528.25,-74C528.25,-74 330.75,-74 330.75,-74 324.75,-74 318.75,-68 318.75,-62 318.75,-62 318.75,-18 318.75,-18 318.75,-12 324.75,-6 330.75,-6 330.75,-6 528.25,-6 528.25,-6 534.25,-6 540.25,-12 540.25,-18 540.25,-18 540.25,-62 540.25,-62 540.25,-68 534.25,-74 528.25,-74"/>
<text xml:space="preserve" text-anchor="middle" x="429.5" y="-60.5" font-family="Helvetica,sans-Serif" font-size="10.00">E1 [Abstract] (ATTACK)</text>
<text xml:space="preserve" text-anchor="middle" x="429.5" y="-48.5" font-family="Helvetica,sans-Serif" font-size="10.00">Sepsis guidelines sug‑ gest targeting lactate</text>
<text xml:space="preserve" text-anchor="middle" x="429.5" y="-36.5" font-family="Helvetica,sans-Serif" font-size="10.00">clearance to guide fluid therapy despite the</text>
<text xml:space="preserve" text-anchor="middle" x="429.5" y="-24.5" font-family="Helvetica,sans-Serif" font-size="10.00">complexity of hyperlactatemia and the potential</text>
<text xml:space="preserve" text-anchor="middle" x="429.5" y="-12.5" font-family="Helvetica,sans-Serif" font-size="10.00">harm of fluid overload.</text>
</g>
<!-- E1&#45;&gt;C0 -->
<g id="edge2" class="edge">
<title>E1&#45;&gt;C0</title>
<path fill="none" stroke="black" stroke-dasharray="5,2" d="M540.6,-40C562.09,-40 584.82,-40 606.91,-40"/>
<polygon fill="black" stroke="black" points="606.88,-43.5 616.88,-40 606.88,-36.5 606.88,-43.5"/>
<text xml:space="preserve" text-anchor="middle" x="579.5" y="-41.95" font-family="Helvetica,sans-Serif" font-size="9.00">attacks</text>
</g>
<!-- E1_1 -->
<g id="node3" class="node">
<title>E1_1</title>
<path fill="#ffd6d6" stroke="black" d="M228.25,-74C228.25,-74 12,-74 12,-74 6,-74 0,-68 0,-62 0,-62 0,-18 0,-18 0,-12 6,-6 12,-6 12,-6 228.25,-6 228.25,-6 234.25,-6 240.25,-12 240.25,-18 240.25,-18 240.25,-62 240.25,-62 240.25,-68 234.25,-74 228.25,-74"/>
<text xml:space="preserve" text-anchor="middle" x="120.12" y="-60.5" font-family="Helvetica,sans-Serif" font-size="10.00">E1_1 [Introduction] (ATTACK)</text>
<text xml:space="preserve" text-anchor="middle" x="120.12" y="-48.5" font-family="Helvetica,sans-Serif" font-size="10.00">Further, as an the original ethical applications</text>
<text xml:space="preserve" text-anchor="middle" x="120.12" y="-36.5" font-family="Helvetica,sans-Serif" font-size="10.00">for CLASSIC in Sweinitial lactate level 4 mmol/L</text>
<text xml:space="preserve" text-anchor="middle" x="120.12" y="-24.5" font-family="Helvetica,sans-Serif" font-size="10.00">is associated with a markden, Denmark and the</text>
<text xml:space="preserve" text-anchor="middle" x="120.12" y="-12.5" font-family="Helvetica,sans-Serif" font-size="10.00">Czech Republic (Etikprövnings&#45; ≥ edly increased ...</text>
</g>
<!-- E1_1&#45;&gt;E1 -->
<g id="edge1" class="edge">
<title>E1_1&#45;&gt;E1</title>
<path fill="none" stroke="black" stroke-dasharray="5,2" d="M240.4,-40C262.25,-40 285.07,-40 306.97,-40"/>
<polygon fill="black" stroke="black" points="306.82,-43.5 316.82,-40 306.82,-36.5 306.82,-43.5"/>
<text xml:space="preserve" text-anchor="middle" x="279.5" y="-41.95" font-family="Helvetica,sans-Serif" font-size="9.00">attacks</text>
</g>
</g>
</svg>
