<?xml version="1.0" encoding="UTF-8" standalone="no"?>
<!DOCTYPE svg PUBLIC "-//W3C//DTD SVG 1.1//EN"
 "http://www.w3.org/Graphics/SVG/1.1/DTD/svg11.dtd">
<!-- Generated by graphviz version 14.1.2 (20260124.0452)
 -->
<!-- Pages: 1 -->
<svg width="576pt" height="355pt"
 viewBox="0.00 0.00 576.00 355.00" xmlns="http://www.w3.org/2000/svg" xmlns:xlink="http://www.w3.org/1999/xlink">
<g id="graph0" class="graph" transform="scale(1 1) rotate(0) translate(4 351)">
<polygon fill="white" stroke="none" points="-4,4 -4,-351 572,-351 572,4 -4,4"/>
<!-- C0 -->
<g id="node1" class="node">
<title>C0</title>
<path fill="#fff3b0" stroke="black" d="M556,-225C556,-225 334.5,-225 334.5,-225 328.5,-225 322.5,-219 322.5,-213 322.5,-213 322.5,-145 322.5,-145 322.5,-139 328.5,-133 334.5,-133 334.5,-133 556,-133 556,-133 562,-133 568,-139 568,-145 568,-145 568,-213 568,-213 568,-219 562,-225 556,-225"/>
<text xml:space="preserve" text-anchor="middle" x="445.25" y="-211.5" font-family="Helvetica,sans-Serif" font-size="10.00">PMID:26903338</text>
<text xml:space="preserve" text-anchor="middle" x="445.25" y="-199.5" font-family="Helvetica,sans-Serif" font-size="10.00">sepsis_diagnosis_criteria</text>
<text xml:space="preserve" text-anchor="middle" x="445.25" y="-175.5" font-family="Helvetica,sans-Serif" font-size="10.00">CLAIM C0</text>
<text xml:space="preserve" text-anchor="middle" x="445.25" y="-163.5" font-family="Helvetica,sans-Serif" font-size="10.00">Sepsis should be defined as life&#45;threatening organ</text>
<text xml:space="preserve" text-anchor="middle" x="445.25" y="-151.5" font-family="Helvetica,sans-Serif" font-size="10.00">dysfunction caused by a dysregulated host response</text>
<text xml:space="preserve" text-anchor="middle" x="445.25" y="-139.5" font-family="Helvetica,sans-Serif" font-size="10.00">to infection</text>
</g>
<!-- E1 -->
<g id="node2" class="node">
<title>E1</title>
<path fill="#dff7df" stroke="black" d="M221.5,-347C221.5,-347 15.75,-347 15.75,-347 9.75,-347 3.75,-341 3.75,-335 3.75,-335 3.75,-303 3.75,-303 3.75,-297 9.75,-291 15.75,-291 15.75,-291 221.5,-291 221.5,-291 227.5,-291 233.5,-297 233.5,-303 233.5,-303 233.5,-335 233.5,-335 233.5,-341 227.5,-347 221.5,-347"/>
<text xml:space="preserve" text-anchor="middle" x="118.62" y="-333.5" font-family="Helvetica,sans-Serif" font-size="10.00">E1 [Abstract] (SUPPORT)</text>
<text xml:space="preserve" text-anchor="middle" x="118.62" y="-321.5" font-family="Helvetica,sans-Serif" font-size="10.00">Sepsis should be defined as life&#45;threatening</text>
<text xml:space="preserve" text-anchor="middle" x="118.62" y="-309.5" font-family="Helvetica,sans-Serif" font-size="10.00">organ dysfunction caused by a dysregulated host</text>
<text xml:space="preserve" text-anchor="middle" x="118.62" y="-297.5" font-family="Helvetica,sans-Serif" font-size="10.00">response to infection.</text>
</g>
<!-- E1&#45;&gt;C0 -->
<g id="edge1" class="edge">
<title>E1&#45;&gt;C0</title>
<path fill="none" stroke="black" d="M202.6,-290.54C214.3,-286.19 226.13,-281.6 237.25,-277 271.54,-262.8 308.35,-245.93 341.27,-230.22"/>
<polygon fill="black" stroke="black" points="342.49,-233.52 350,-226.04 339.47,-227.2 342.49,-233.52"/>
<text xml:space="preserve" text-anchor="middle" x="279.88" y="-266.74" font-family="Helvetica,sans-Serif" font-size="9.00">supports</text>
</g>
<!-- E2 -->
<g id="node3" class="node">
<title>E2</title>
<path fill="#dff7df" stroke="black" d="M221.5,-262C221.5,-262 15.75,-262 15.75,-262 9.75,-262 3.75,-256 3.75,-250 3.75,-250 3.75,-206 3.75,-206 3.75,-200 9.75,-194 15.75,-194 15.75,-194 221.5,-194 221.5,-194 227.5,-194 233.5,-200 233.5,-206 233.5,-206 233.5,-250 233.5,-250 233.5,-256 227.5,-262 221.5,-262"/>
<text xml:space="preserve" text-anchor="middle" x="118.62" y="-248.5" font-family="Helvetica,sans-Serif" font-size="10.00">E2 [Abstract] (SUPPORT)</text>
<text xml:space="preserve" text-anchor="middle" x="118.62" y="-236.5" font-family="Helvetica,sans-Serif" font-size="10.00">For clinical operationalization, organ</text>
<text xml:space="preserve" text-anchor="middle" x="118.62" y="-224.5" font-family="Helvetica,sans-Serif" font-size="10.00">dysfunction can be represented by an increase in</text>
<text xml:space="preserve" text-anchor="middle" x="118.62" y="-212.5" font-family="Helvetica,sans-Serif" font-size="10.00">the Sequential [Sepsis&#45;related] Organ Failure</text>
<text xml:space="preserve" text-anchor="middle" x="118.62" y="-200.5" font-family="Helvetica,sans-Serif" font-size="10.00">Assessment (SOFA) score of 2 or more points ...</text>
</g>
<!-- E2&#45;&gt;C0 -->
<g id="edge2" class="edge">
<title>E2&#45;&gt;C0</title>
<path fill="none" stroke="black" d="M233.62,-210.79C258.6,-207.02 285.27,-203 310.94,-199.12"/>
<polygon fill="black" stroke="black" points="311.39,-202.59 320.76,-197.64 310.35,-195.67 311.39,-202.59"/>
<text xml:space="preserve" text-anchor="middle" x="279.88" y="-208.38" font-family="Helvetica,sans-Serif" font-size="9.00">supports</text>
</g>
<!-- E3 -->
<g id="node4" class="node">
<title>E3</title>
<path fill="#dff7df" stroke="black" d="M215.5,-165C215.5,-165 21.75,-165 21.75,-165 15.75,-165 9.75,-159 9.75,-153 9.75,-153 9.75,-109 9.75,-109 9.75,-103 15.75,-97 21.75,-97 21.75,-97 215.5,-97 215.5,-97 221.5,-97 227.5,-103 227.5,-109 227.5,-109 227.5,-153 227.5,-153 227.5,-159 221.5,-165 215.5,-165"/>
<text xml:space="preserve" text-anchor="middle" x="118.62" y="-151.5" font-family="Helvetica,sans-Serif" font-size="10.00">E3 [Abstract] (SUPPORT)</text>
<text xml:space="preserve" text-anchor="middle" x="118.62" y="-139.5" font-family="Helvetica,sans-Serif" font-size="10.00">Septic shock should be defined as a subset of</text>
<text xml:space="preserve" text-anchor="middle" x="118.62" y="-127.5" font-family="Helvetica,sans-Serif" font-size="10.00">sepsis in which underlying circulatory and</text>
<text xml:space="preserve" text-anchor="middle" x="118.62" y="-115.5" font-family="Helvetica,sans-Serif" font-size="10.00">cellular metabolism abnormalities are profound</text>
<text xml:space="preserve" text-anchor="middle" x="118.62" y="-103.5" font-family="Helvetica,sans-Serif" font-size="10.00">enough to substantially increase mortality.</text>
</g>
<!-- E3&#45;&gt;C0 -->
<g id="edge3" class="edge">
<title>E3&#45;&gt;C0</title>
<path fill="none" stroke="black" d="M227.72,-146.98C254.31,-150.91 283.08,-155.17 310.71,-159.25"/>
<polygon fill="black" stroke="black" points="310.16,-162.71 320.56,-160.71 311.18,-155.79 310.16,-162.71"/>
<text xml:space="preserve" text-anchor="middle" x="279.88" y="-158.39" font-family="Helvetica,sans-Serif" font-size="9.00">supports</text>
</g>
<!-- E4 -->
<g id="node5" class="node">
<title>E4</title>
<path fill="#dff7df" stroke="black" d="M225.25,-68C225.25,-68 12,-68 12,-68 6,-68 0,-62 0,-56 0,-56 0,-12 0,-12 0,-6 6,0 12,0 12,0 225.25,0 225.25,0 231.25,0 237.25,-6 237.25,-12 237.25,-12 237.25,-56 237.25,-56 237.25,-62 231.25,-68 225.25,-68"/>
<text xml:space="preserve" text-anchor="middle" x="118.62" y="-54.5" font-family="Helvetica,sans-Serif" font-size="10.00">E4 [Abstract] (SUPPORT)</text>
<text xml:space="preserve" text-anchor="middle" x="118.62" y="-42.5" font-family="Helvetica,sans-Serif" font-size="10.00">Patients with septic shock can be clinically</text>
<text xml:space="preserve" text-anchor="middle" x="118.62" y="-30.5" font-family="Helvetica,sans-Serif" font-size="10.00">identified using a combination of hypotension</text>
<text xml:space="preserve" text-anchor="middle" x="118.62" y="-18.5" font-family="Helvetica,sans-Serif" font-size="10.00">requiring vasopressors to maintain MAP ≥ 65 mm</text>
<text xml:space="preserve" text-anchor="middle" x="118.62" y="-6.5" font-family="Helvetica,sans-Serif" font-size="10.00">Hg and having a serum lactate level &gt; 2 mmol/L ...</text>
</g>
<!-- E4&#45;&gt;C0 -->
<g id="edge4" class="edge">
<title>E4&#45;&gt;C0</title>
<path fill="none" stroke="black" d="M203.33,-68.39C214.76,-73.23 226.32,-78.19 237.25,-83 269.48,-97.18 304.28,-113.08 335.98,-127.81"/>
<polygon fill="black" stroke="black" points="334.24,-130.86 344.79,-131.91 337.2,-124.51 334.24,-130.86"/>
<text xml:space="preserve" text-anchor="middle" x="279.88" y="-110.62" font-family="Helvetica,sans-Serif" font-size="9.00">supports</text>
</g>
</g>
</svg>
