<?xml version="1.0" encoding="UTF-8" standalone="no"?>
<!DOCTYPE svg PUBLIC "-//W3C//DTD SVG 1.1//EN"
 "http://www.w3.org/Graphics/SVG/1.1/DTD/svg11.dtd">
<!-- Generated by graphviz version 14.1.2 (20260124.0452)
 -->
<!-- Pages: 1 -->
<svg width="571pt" height="416pt"
 viewBox="0.00 0.00 571.00 416.00" xmlns="http://www.w3.org/2000/svg" xmlns:xlink="http://www.w3.org/1999/xlink">
<g id="graph0" class="graph" transform="scale(1 1) rotate(0) translate(4 412)">
<polygon fill="white" stroke="none" points="-4,4 -4,-412 566.75,-412 566.75,4 -4,4"/>
<!-- C0 -->
<g id="node1" class="node">
<title>C0</title>
<path fill="#fff3b0" stroke="black" d="M550.75,-232C550.75,-232 323.25,-232 323.25,-232 317.25,-232 311.25,-226 311.25,-220 311.25,-220 311.25,-164 311.25,-164 311.25,-158 317.25,-152 323.25,-152 323.25,-152 550.75,-152 550.75,-152 556.75,-152 562.75,-158 562.75,-164 562.75,-164 562.75,-220 562.75,-220 562.75,-226 556.75,-232 550.75,-232"/>
<text xml:space="preserve" text-anchor="middle" x="437" y="-218.5" font-family="Helvetica,sans-Serif" font-size="10.00">PMID:27379022</text>
<text xml:space="preserve" text-anchor="middle" x="437" y="-206.5" font-family="Helvetica,sans-Serif" font-size="10.00">steroid_sensitivity</text>
<text xml:space="preserve" text-anchor="middle" x="437" y="-182.5" font-family="Helvetica,sans-Serif" font-size="10.00">CLAIM C0</text>
<text xml:space="preserve" text-anchor="middle" x="437" y="-170.5" font-family="Helvetica,sans-Serif" font-size="10.00">Corticosteroids at moderate doses may help reversing</text>
<text xml:space="preserve" text-anchor="middle" x="437" y="-158.5" font-family="Helvetica,sans-Serif" font-size="10.00">sepsis&#45;associated shock and organ dysfunction</text>
</g>
<!-- E1 -->
<g id="node2" class="node">
<title>E1</title>
<path fill="#dff7df" stroke="black" d="M208,-408C208,-408 18,-408 18,-408 12,-408 6,-402 6,-396 6,-396 6,-352 6,-352 6,-346 12,-340 18,-340 18,-340 208,-340 208,-340 214,-340 220,-346 220,-352 220,-352 220,-396 220,-396 220,-402 214,-408 208,-408"/>
<text xml:space="preserve" text-anchor="middle" x="113" y="-394.5" font-family="Helvetica,sans-Serif" font-size="10.00">E1 [Abstract] (SUPPORT)</text>
<text xml:space="preserve" text-anchor="middle" x="113" y="-382.5" font-family="Helvetica,sans-Serif" font-size="10.00">There is evidence from in vitro and in vivo</text>
<text xml:space="preserve" text-anchor="middle" x="113" y="-370.5" font-family="Helvetica,sans-Serif" font-size="10.00">experiments in various animal models and in</text>
<text xml:space="preserve" text-anchor="middle" x="113" y="-358.5" font-family="Helvetica,sans-Serif" font-size="10.00">patients that endotoxin or sepsis may directly</text>
<text xml:space="preserve" text-anchor="middle" x="113" y="-346.5" font-family="Helvetica,sans-Serif" font-size="10.00">and indirectly alter the ...</text>
</g>
<!-- E1&#45;&gt;C0 -->
<g id="edge1" class="edge">
<title>E1&#45;&gt;C0</title>
<path fill="none" stroke="black" d="M198.49,-339.55C207.87,-335.21 217.21,-330.65 226,-326 275.38,-299.89 328.38,-266.02 368.78,-238.87"/>
<polygon fill="black" stroke="black" points="370.67,-241.82 376.99,-233.32 366.75,-236.02 370.67,-241.82"/>
<text xml:space="preserve" text-anchor="middle" x="268.62" y="-311.62" font-family="Helvetica,sans-Serif" font-size="9.00">supports</text>
</g>
<!-- E2 -->
<g id="node3" class="node">
<title>E2</title>
<path fill="#dff7df" stroke="black" d="M214,-311C214,-311 12,-311 12,-311 6,-311 0,-305 0,-299 0,-299 0,-255 0,-255 0,-249 6,-243 12,-243 12,-243 214,-243 214,-243 220,-243 226,-249 226,-255 226,-255 226,-299 226,-299 226,-305 220,-311 214,-311"/>
<text xml:space="preserve" text-anchor="middle" x="113" y="-297.5" font-family="Helvetica,sans-Serif" font-size="10.00">E2 [Abstract] (SUPPORT)</text>
<text xml:space="preserve" text-anchor="middle" x="113" y="-285.5" font-family="Helvetica,sans-Serif" font-size="10.00">Exogenous administration of corticosteroids at</text>
<text xml:space="preserve" text-anchor="middle" x="113" y="-273.5" font-family="Helvetica,sans-Serif" font-size="10.00">moderate dose, i.e., &lt;400 mg of hydrocortisone</text>
<text xml:space="preserve" text-anchor="middle" x="113" y="-261.5" font-family="Helvetica,sans-Serif" font-size="10.00">or equivalent for &gt;96 h, may help reversing</text>
<text xml:space="preserve" text-anchor="middle" x="113" y="-249.5" font-family="Helvetica,sans-Serif" font-size="10.00">sepsis&#45;associated shock and organ dysfunction.</text>
</g>
<!-- E2&#45;&gt;C0 -->
<g id="edge2" class="edge">
<title>E2&#45;&gt;C0</title>
<path fill="none" stroke="black" d="M226.17,-247.39C249.96,-241.11 275.33,-234.41 299.9,-227.93"/>
<polygon fill="black" stroke="black" points="300.51,-231.39 309.29,-225.45 298.73,-224.62 300.51,-231.39"/>
<text xml:space="preserve" text-anchor="middle" x="268.62" y="-241.54" font-family="Helvetica,sans-Serif" font-size="9.00">supports</text>
</g>
<!-- E3 -->
<g id="node4" class="node">
<title>E3</title>
<path fill="#dff7df" stroke="black" d="M213.62,-214C213.62,-214 12.38,-214 12.38,-214 6.38,-214 0.38,-208 0.38,-202 0.38,-202 0.38,-182 0.38,-182 0.38,-176 6.38,-170 12.38,-170 12.38,-170 213.62,-170 213.62,-170 219.62,-170 225.62,-176 225.62,-182 225.62,-182 225.62,-202 225.62,-202 225.62,-208 219.62,-214 213.62,-214"/>
<text xml:space="preserve" text-anchor="middle" x="113" y="-200.5" font-family="Helvetica,sans-Serif" font-size="10.00">E3 [Abstract] (SUPPORT)</text>
<text xml:space="preserve" text-anchor="middle" x="113" y="-188.5" font-family="Helvetica,sans-Serif" font-size="10.00">Corticosteroids may also shorten the duration of</text>
<text xml:space="preserve" text-anchor="middle" x="113" y="-176.5" font-family="Helvetica,sans-Serif" font-size="10.00">stay in the ICU.</text>
</g>
<!-- E3&#45;&gt;C0 -->
<g id="edge3" class="edge">
<title>E3&#45;&gt;C0</title>
<path fill="none" stroke="black" d="M225.72,-192C249.58,-192 275.04,-192 299.71,-192"/>
<polygon fill="black" stroke="black" points="299.47,-195.5 309.47,-192 299.47,-188.5 299.47,-195.5"/>
<text xml:space="preserve" text-anchor="middle" x="268.62" y="-193.95" font-family="Helvetica,sans-Serif" font-size="9.00">supports</text>
</g>
<!-- E4 -->
<g id="node5" class="node">
<title>E4</title>
<path fill="#dff7df" stroke="black" d="M212.12,-141C212.12,-141 13.88,-141 13.88,-141 7.88,-141 1.88,-135 1.88,-129 1.88,-129 1.88,-85 1.88,-85 1.88,-79 7.88,-73 13.88,-73 13.88,-73 212.12,-73 212.12,-73 218.12,-73 224.12,-79 224.12,-85 224.12,-85 224.12,-129 224.12,-129 224.12,-135 218.12,-141 212.12,-141"/>
<text xml:space="preserve" text-anchor="middle" x="113" y="-127.5" font-family="Helvetica,sans-Serif" font-size="10.00">E4 [Abstract] (SUPPORT)</text>
<text xml:space="preserve" text-anchor="middle" x="113" y="-115.5" font-family="Helvetica,sans-Serif" font-size="10.00">Except for increased blood glucose and sodium</text>
<text xml:space="preserve" text-anchor="middle" x="113" y="-103.5" font-family="Helvetica,sans-Serif" font-size="10.00">levels, treatment with corticosteroids was</text>
<text xml:space="preserve" text-anchor="middle" x="113" y="-91.5" font-family="Helvetica,sans-Serif" font-size="10.00">rather well tolerated in the context of clinical</text>
<text xml:space="preserve" text-anchor="middle" x="113" y="-79.5" font-family="Helvetica,sans-Serif" font-size="10.00">trials.</text>
</g>
<!-- E4&#45;&gt;C0 -->
<g id="edge4" class="edge">
<title>E4&#45;&gt;C0</title>
<path fill="none" stroke="black" d="M224.36,-136.13C248.63,-142.54 274.6,-149.39 299.75,-156.03"/>
<polygon fill="black" stroke="black" points="298.82,-159.41 309.38,-158.58 300.61,-152.64 298.82,-159.41"/>
<text xml:space="preserve" text-anchor="middle" x="268.62" y="-154" font-family="Helvetica,sans-Serif" font-size="9.00">supports</text>
</g>
<!-- E5 -->
<g id="node6" class="node">
<title>E5</title>
<path fill="#ffd6d6" stroke="black" d="M205,-44C205,-44 21,-44 21,-44 15,-44 9,-38 9,-32 9,-32 9,-12 9,-12 9,-6 15,0 21,0 21,0 205,0 205,0 211,0 217,-6 217,-12 217,-12 217,-32 217,-32 217,-38 211,-44 205,-44"/>
<text xml:space="preserve" text-anchor="middle" x="113" y="-30.5" font-family="Helvetica,sans-Serif" font-size="10.00">E5 [Abstract] (ATTACK)</text>
<text xml:space="preserve" text-anchor="middle" x="113" y="-18.5" font-family="Helvetica,sans-Serif" font-size="10.00">The benefit of treatment on survival remains</text>
<text xml:space="preserve" text-anchor="middle" x="113" y="-6.5" font-family="Helvetica,sans-Serif" font-size="10.00">controversial.</text>
</g>
<!-- E5&#45;&gt;C0 -->
<g id="edge5" class="edge">
<title>E5&#45;&gt;C0</title>
<path fill="none" stroke="black" stroke-dasharray="5,2" d="M190.3,-44.4C202.44,-48.76 214.71,-53.66 226,-59 277.1,-83.17 330.9,-117.43 371.24,-145.13"/>
<polygon fill="black" stroke="black" points="369.22,-147.98 379.43,-150.79 373.2,-142.22 369.22,-147.98"/>
<text xml:space="preserve" text-anchor="middle" x="268.62" y="-92.92" font-family="Helvetica,sans-Serif" font-size="9.00">attacks</text>
</g>
</g>
</svg>
