<?xml version="1.0" encoding="UTF-8" standalone="no"?>
<!DOCTYPE svg PUBLIC "-//W3C//DTD SVG 1.1//EN"
 "http://www.w3.org/Graphics/SVG/1.1/DTD/svg11.dtd">
<!-- Generated by graphviz version 14.1.2 (20260124.0452)
 -->
<!-- Pages: 1 -->
<svg width="544pt" height="355pt"
 viewBox="0.00 0.00 544.00 355.00" xmlns="http://www.w3.org/2000/svg" xmlns:xlink="http://www.w3.org/1999/xlink">
<g id="graph0" class="graph" transform="scale(1 1) rotate(0) translate(4 351)">
<polygon fill="white" stroke="none" points="-4,4 -4,-351 539.75,-351 539.75,4 -4,4"/>
<!-- C0 -->
<g id="node1" class="node">
<title>C0</title>
<path fill="#fff3b0" stroke="black" d="M523.75,-207C523.75,-207 324.75,-207 324.75,-207 318.75,-207 312.75,-201 312.75,-195 312.75,-195 312.75,-139 312.75,-139 312.75,-133 318.75,-127 324.75,-127 324.75,-127 523.75,-127 523.75,-127 529.75,-127 535.75,-133 535.75,-139 535.75,-139 535.75,-195 535.75,-195 535.75,-201 529.75,-207 523.75,-207"/>
<text xml:space="preserve" text-anchor="middle" x="424.25" y="-193.5" font-family="Helvetica,sans-Serif" font-size="10.00">PMID:31965266</text>
<text xml:space="preserve" text-anchor="middle" x="424.25" y="-181.5" font-family="Helvetica,sans-Serif" font-size="10.00">symptoms_diagnosis</text>
<text xml:space="preserve" text-anchor="middle" x="424.25" y="-157.5" font-family="Helvetica,sans-Serif" font-size="10.00">CLAIM C0</text>
<text xml:space="preserve" text-anchor="middle" x="424.25" y="-145.5" font-family="Helvetica,sans-Serif" font-size="10.00">Machine learning models can accurately predict</text>
<text xml:space="preserve" text-anchor="middle" x="424.25" y="-133.5" font-family="Helvetica,sans-Serif" font-size="10.00">sepsis and septic shock onset</text>
</g>
<!-- E1 -->
<g id="node2" class="node">
<title>E1</title>
<path fill="#dff7df" stroke="black" d="M215.5,-347C215.5,-347 12,-347 12,-347 6,-347 0,-341 0,-335 0,-335 0,-291 0,-291 0,-285 6,-279 12,-279 12,-279 215.5,-279 215.5,-279 221.5,-279 227.5,-285 227.5,-291 227.5,-291 227.5,-335 227.5,-335 227.5,-341 221.5,-347 215.5,-347"/>
<text xml:space="preserve" text-anchor="middle" x="113.75" y="-333.5" font-family="Helvetica,sans-Serif" font-size="10.00">E1 [Introduction] (SUPPORT)</text>
<text xml:space="preserve" text-anchor="middle" x="113.75" y="-321.5" font-family="Helvetica,sans-Serif" font-size="10.00">Retrospective studies demonstrate that machine</text>
<text xml:space="preserve" text-anchor="middle" x="113.75" y="-309.5" font-family="Helvetica,sans-Serif" font-size="10.00">learning models [1], with incidence and</text>
<text xml:space="preserve" text-anchor="middle" x="113.75" y="-297.5" font-family="Helvetica,sans-Serif" font-size="10.00">mortality rates failing to decrease can</text>
<text xml:space="preserve" text-anchor="middle" x="113.75" y="-285.5" font-family="Helvetica,sans-Serif" font-size="10.00">accurately predict sepsis and septic shock ...</text>
</g>
<!-- E1&#45;&gt;C0 -->
<g id="edge1" class="edge">
<title>E1&#45;&gt;C0</title>
<path fill="none" stroke="black" d="M197.22,-278.59C207.46,-274.11 217.75,-269.51 227.5,-265 262.98,-248.59 301.55,-229.54 335,-212.63"/>
<polygon fill="black" stroke="black" points="336.52,-215.78 343.86,-208.14 333.35,-209.54 336.52,-215.78"/>
<text xml:space="preserve" text-anchor="middle" x="270.12" y="-254.28" font-family="Helvetica,sans-Serif" font-size="9.00">supports</text>
</g>
<!-- E2 -->
<g id="node3" class="node">
<title>E2</title>
<path fill="#dff7df" stroke="black" d="M211.38,-250C211.38,-250 16.12,-250 16.12,-250 10.12,-250 4.12,-244 4.12,-238 4.12,-238 4.12,-194 4.12,-194 4.12,-188 10.12,-182 16.12,-182 16.12,-182 211.38,-182 211.38,-182 217.38,-182 223.38,-188 223.38,-194 223.38,-194 223.38,-238 223.38,-238 223.38,-244 217.38,-250 211.38,-250"/>
<text xml:space="preserve" text-anchor="middle" x="113.75" y="-236.5" font-family="Helvetica,sans-Serif" font-size="10.00">E2 [Introduction] (SUPPORT)</text>
<text xml:space="preserve" text-anchor="middle" x="113.75" y="-224.5" font-family="Helvetica,sans-Serif" font-size="10.00">Left&#45;aligned models predict the onset of sepsis</text>
<text xml:space="preserve" text-anchor="middle" x="113.75" y="-212.5" font-family="Helvetica,sans-Serif" font-size="10.00">following a fixed point in time, with varying</text>
<text xml:space="preserve" text-anchor="middle" x="113.75" y="-200.5" font-family="Helvetica,sans-Serif" font-size="10.00">time points such as on admission [15] or</text>
<text xml:space="preserve" text-anchor="middle" x="113.75" y="-188.5" font-family="Helvetica,sans-Serif" font-size="10.00">preoperatively [16, 17].</text>
</g>
<!-- E2&#45;&gt;C0 -->
<g id="edge2" class="edge">
<title>E2&#45;&gt;C0</title>
<path fill="none" stroke="black" d="M223.52,-198.72C248.6,-194.74 275.45,-190.48 301.06,-186.41"/>
<polygon fill="black" stroke="black" points="301.52,-189.88 310.85,-184.85 300.42,-182.97 301.52,-189.88"/>
<text xml:space="preserve" text-anchor="middle" x="270.12" y="-194.92" font-family="Helvetica,sans-Serif" font-size="9.00">supports</text>
</g>
<!-- E3 -->
<g id="node4" class="node">
<title>E3</title>
<path fill="#dff7df" stroke="black" d="M210.25,-153C210.25,-153 17.25,-153 17.25,-153 11.25,-153 5.25,-147 5.25,-141 5.25,-141 5.25,-97 5.25,-97 5.25,-91 11.25,-85 17.25,-85 17.25,-85 210.25,-85 210.25,-85 216.25,-85 222.25,-91 222.25,-97 222.25,-97 222.25,-141 222.25,-141 222.25,-147 216.25,-153 210.25,-153"/>
<text xml:space="preserve" text-anchor="middle" x="113.75" y="-139.5" font-family="Helvetica,sans-Serif" font-size="10.00">E3 [Introduction] (SUPPORT)</text>
<text xml:space="preserve" text-anchor="middle" x="113.75" y="-127.5" font-family="Helvetica,sans-Serif" font-size="10.00">Right&#45;aligned models continuously predict</text>
<text xml:space="preserve" text-anchor="middle" x="113.75" y="-115.5" font-family="Helvetica,sans-Serif" font-size="10.00">whether sepsis will occur after a distinct</text>
<text xml:space="preserve" text-anchor="middle" x="113.75" y="-103.5" font-family="Helvetica,sans-Serif" font-size="10.00">period of time and are also known as real&#45;time</text>
<text xml:space="preserve" text-anchor="middle" x="113.75" y="-91.5" font-family="Helvetica,sans-Serif" font-size="10.00">or continuous prediction models.</text>
</g>
<!-- E3&#45;&gt;C0 -->
<g id="edge3" class="edge">
<title>E3&#45;&gt;C0</title>
<path fill="none" stroke="black" d="M222.65,-135.79C248.04,-139.74 275.28,-143.98 301.24,-148.02"/>
<polygon fill="black" stroke="black" points="300.36,-151.42 310.78,-149.5 301.44,-144.5 300.36,-151.42"/>
<text xml:space="preserve" text-anchor="middle" x="270.12" y="-147.82" font-family="Helvetica,sans-Serif" font-size="9.00">supports</text>
</g>
<!-- E4 -->
<g id="node5" class="node">
<title>E4</title>
<path fill="#dff7df" stroke="black" d="M214,-56C214,-56 13.5,-56 13.5,-56 7.5,-56 1.5,-50 1.5,-44 1.5,-44 1.5,-12 1.5,-12 1.5,-6 7.5,0 13.5,0 13.5,0 214,0 214,0 220,0 226,-6 226,-12 226,-12 226,-44 226,-44 226,-50 220,-56 214,-56"/>
<text xml:space="preserve" text-anchor="middle" x="113.75" y="-42.5" font-family="Helvetica,sans-Serif" font-size="10.00">E4 [Introduction] (SUPPORT)</text>
<text xml:space="preserve" text-anchor="middle" x="113.75" y="-30.5" font-family="Helvetica,sans-Serif" font-size="10.00">A model has therefore trained to predict whether</text>
<text xml:space="preserve" text-anchor="middle" x="113.75" y="-18.5" font-family="Helvetica,sans-Serif" font-size="10.00">sepsis is present in a new patient based on all</text>
<text xml:space="preserve" text-anchor="middle" x="113.75" y="-6.5" font-family="Helvetica,sans-Serif" font-size="10.00">other variables.</text>
</g>
<!-- E4&#45;&gt;C0 -->
<g id="edge4" class="edge">
<title>E4&#45;&gt;C0</title>
<path fill="none" stroke="black" d="M192.16,-56.44C204.07,-61.13 216.16,-66.07 227.5,-71 263.05,-86.46 301.48,-104.91 334.8,-121.49"/>
<polygon fill="black" stroke="black" points="333.1,-124.55 343.61,-125.89 336.23,-118.29 333.1,-124.55"/>
<text xml:space="preserve" text-anchor="middle" x="270.12" y="-100.36" font-family="Helvetica,sans-Serif" font-size="9.00">supports</text>
</g>
</g>
</svg>
