<?xml version="1.0" encoding="UTF-8" standalone="no"?>
<!DOCTYPE svg PUBLIC "-//W3C//DTD SVG 1.1//EN"
 "http://www.w3.org/Graphics/SVG/1.1/DTD/svg11.dtd">
<!-- Generated by graphviz version 14.1.2 (20260124.0452)
 -->
<!-- Pages: 1 -->
<svg width="574pt" height="367pt"
 viewBox="0.00 0.00 574.00 367.00" xmlns="http://www.w3.org/2000/svg" xmlns:xlink="http://www.w3.org/1999/xlink">
<g id="graph0" class="graph" transform="scale(1 1) rotate(0) translate(4 363)">
<polygon fill="white" stroke="none" points="-4,4 -4,-363 569.75,-363 569.75,4 -4,4"/>
<!-- C0 -->
<g id="node1" class="node">
<title>C0</title>
<path fill="#fff3b0" stroke="black" d="M553.75,-225C553.75,-225 340.5,-225 340.5,-225 334.5,-225 328.5,-219 328.5,-213 328.5,-213 328.5,-145 328.5,-145 328.5,-139 334.5,-133 340.5,-133 340.5,-133 553.75,-133 553.75,-133 559.75,-133 565.75,-139 565.75,-145 565.75,-145 565.75,-213 565.75,-213 565.75,-219 559.75,-225 553.75,-225"/>
<text xml:space="preserve" text-anchor="middle" x="447.12" y="-211.5" font-family="Helvetica,sans-Serif" font-size="10.00">PMID:35106617</text>
<text xml:space="preserve" text-anchor="middle" x="447.12" y="-199.5" font-family="Helvetica,sans-Serif" font-size="10.00">symptoms_diagnosis</text>
<text xml:space="preserve" text-anchor="middle" x="447.12" y="-175.5" font-family="Helvetica,sans-Serif" font-size="10.00">CLAIM C0</text>
<text xml:space="preserve" text-anchor="middle" x="447.12" y="-163.5" font-family="Helvetica,sans-Serif" font-size="10.00">TDM&#45;guided therapy does not significantly improve</text>
<text xml:space="preserve" text-anchor="middle" x="447.12" y="-151.5" font-family="Helvetica,sans-Serif" font-size="10.00">outcomes in adult patients with sepsis receiving</text>
<text xml:space="preserve" text-anchor="middle" x="447.12" y="-139.5" font-family="Helvetica,sans-Serif" font-size="10.00">continuous infusion of piperacillin/tazobactam</text>
</g>
<!-- E1 -->
<g id="node2" class="node">
<title>E1</title>
<path fill="#dff7df" stroke="black" d="M215.12,-359C215.12,-359 28.12,-359 28.12,-359 22.12,-359 16.12,-353 16.12,-347 16.12,-347 16.12,-303 16.12,-303 16.12,-297 22.12,-291 28.12,-291 28.12,-291 215.12,-291 215.12,-291 221.12,-291 227.12,-297 227.12,-303 227.12,-303 227.12,-347 227.12,-347 227.12,-353 221.12,-359 215.12,-359"/>
<text xml:space="preserve" text-anchor="middle" x="121.62" y="-345.5" font-family="Helvetica,sans-Serif" font-size="10.00">E1 [Introduction] (SUPPORT)</text>
<text xml:space="preserve" text-anchor="middle" x="121.62" y="-333.5" font-family="Helvetica,sans-Serif" font-size="10.00">In this multicenter, randomized, controlled</text>
<text xml:space="preserve" text-anchor="middle" x="121.62" y="-321.5" font-family="Helvetica,sans-Serif" font-size="10.00">trial we did not observe a significant benefit</text>
<text xml:space="preserve" text-anchor="middle" x="121.62" y="-309.5" font-family="Helvetica,sans-Serif" font-size="10.00">for TDM&#45;guided therapy in adult patients with</text>
<text xml:space="preserve" text-anchor="middle" x="121.62" y="-297.5" font-family="Helvetica,sans-Serif" font-size="10.00">sepsis and continuous infusion of ...</text>
</g>
<!-- E1&#45;&gt;C0 -->
<g id="edge1" class="edge">
<title>E1&#45;&gt;C0</title>
<path fill="none" stroke="black" d="M211.2,-290.59C222.05,-286.13 232.93,-281.54 243.25,-277 276.12,-262.54 311.51,-245.85 343.38,-230.38"/>
<polygon fill="black" stroke="black" points="344.78,-233.6 352.24,-226.07 341.72,-227.3 344.78,-233.6"/>
<text xml:space="preserve" text-anchor="middle" x="285.88" y="-266.41" font-family="Helvetica,sans-Serif" font-size="9.00">supports</text>
</g>
<!-- E2 -->
<g id="node3" class="node">
<title>E2</title>
<path fill="#ffd6d6" stroke="black" d="M231.25,-262C231.25,-262 12,-262 12,-262 6,-262 0,-256 0,-250 0,-250 0,-206 0,-206 0,-200 6,-194 12,-194 12,-194 231.25,-194 231.25,-194 237.25,-194 243.25,-200 243.25,-206 243.25,-206 243.25,-250 243.25,-250 243.25,-256 237.25,-262 231.25,-262"/>
<text xml:space="preserve" text-anchor="middle" x="121.62" y="-248.5" font-family="Helvetica,sans-Serif" font-size="10.00">E2 [Introduction] (ATTACK)</text>
<text xml:space="preserve" text-anchor="middle" x="121.62" y="-236.5" font-family="Helvetica,sans-Serif" font-size="10.00">Previous studies demonstrated that up to 50% of</text>
<text xml:space="preserve" text-anchor="middle" x="121.62" y="-224.5" font-family="Helvetica,sans-Serif" font-size="10.00">critically ill patients receiving a β&#45;lactam</text>
<text xml:space="preserve" text-anchor="middle" x="121.62" y="-212.5" font-family="Helvetica,sans-Serif" font-size="10.00">antibiotic with regimens based on the</text>
<text xml:space="preserve" text-anchor="middle" x="121.62" y="-200.5" font-family="Helvetica,sans-Serif" font-size="10.00">manufacturers&#39; recommendations fail to reach the ...</text>
</g>
<!-- E2&#45;&gt;C0 -->
<g id="edge2" class="edge">
<title>E2&#45;&gt;C0</title>
<path fill="none" stroke="black" stroke-dasharray="5,2" d="M243.54,-209.68C267.4,-206.07 292.53,-202.26 316.66,-198.61"/>
<polygon fill="black" stroke="black" points="317.18,-202.07 326.54,-197.11 316.13,-195.15 317.18,-202.07"/>
<text xml:space="preserve" text-anchor="middle" x="285.88" y="-206.92" font-family="Helvetica,sans-Serif" font-size="9.00">attacks</text>
</g>
<!-- E3 -->
<g id="node4" class="node">
<title>E3</title>
<path fill="#ffd6d6" stroke="black" d="M221.5,-165C221.5,-165 21.75,-165 21.75,-165 15.75,-165 9.75,-159 9.75,-153 9.75,-153 9.75,-109 9.75,-109 9.75,-103 15.75,-97 21.75,-97 21.75,-97 221.5,-97 221.5,-97 227.5,-97 233.5,-103 233.5,-109 233.5,-109 233.5,-153 233.5,-153 233.5,-159 227.5,-165 221.5,-165"/>
<text xml:space="preserve" text-anchor="middle" x="121.62" y="-151.5" font-family="Helvetica,sans-Serif" font-size="10.00">E3 [Introduction] (ATTACK)</text>
<text xml:space="preserve" text-anchor="middle" x="121.62" y="-139.5" font-family="Helvetica,sans-Serif" font-size="10.00">Reasons for insufficient antibiotic exposure</text>
<text xml:space="preserve" text-anchor="middle" x="121.62" y="-127.5" font-family="Helvetica,sans-Serif" font-size="10.00">include both altered pharmacokinetics driven by</text>
<text xml:space="preserve" text-anchor="middle" x="121.62" y="-115.5" font-family="Helvetica,sans-Serif" font-size="10.00">the pathophysiological changes associated with</text>
<text xml:space="preserve" text-anchor="middle" x="121.62" y="-103.5" font-family="Helvetica,sans-Serif" font-size="10.00">critical illness and/or reduced antibiotic ...</text>
</g>
<!-- E3&#45;&gt;C0 -->
<g id="edge3" class="edge">
<title>E3&#45;&gt;C0</title>
<path fill="none" stroke="black" stroke-dasharray="5,2" d="M233.96,-147.52C260.7,-151.49 289.49,-155.76 316.97,-159.84"/>
<polygon fill="black" stroke="black" points="316.34,-163.28 326.75,-161.29 317.37,-156.36 316.34,-163.28"/>
<text xml:space="preserve" text-anchor="middle" x="285.88" y="-158.39" font-family="Helvetica,sans-Serif" font-size="9.00">attacks</text>
</g>
<!-- E4 -->
<g id="node5" class="node">
<title>E4</title>
<path fill="#ffd6d6" stroke="black" d="M218.5,-68C218.5,-68 24.75,-68 24.75,-68 18.75,-68 12.75,-62 12.75,-56 12.75,-56 12.75,-12 12.75,-12 12.75,-6 18.75,0 24.75,0 24.75,0 218.5,0 218.5,0 224.5,0 230.5,-6 230.5,-12 230.5,-12 230.5,-56 230.5,-56 230.5,-62 224.5,-68 218.5,-68"/>
<text xml:space="preserve" text-anchor="middle" x="121.62" y="-54.5" font-family="Helvetica,sans-Serif" font-size="10.00">E4 [Introduction] (ATTACK)</text>
<text xml:space="preserve" text-anchor="middle" x="121.62" y="-42.5" font-family="Helvetica,sans-Serif" font-size="10.00">Further studies are necessary to identify</text>
<text xml:space="preserve" text-anchor="middle" x="121.62" y="-30.5" font-family="Helvetica,sans-Serif" font-size="10.00">patients which might benefit most from a</text>
<text xml:space="preserve" text-anchor="middle" x="121.62" y="-18.5" font-family="Helvetica,sans-Serif" font-size="10.00">TDM&#45;guided β&#45;lactam antibiotic therapy and to</text>
<text xml:space="preserve" text-anchor="middle" x="121.62" y="-6.5" font-family="Helvetica,sans-Serif" font-size="10.00">confirm the observed benefit in 28&#45;day ...</text>
</g>
<!-- E4&#45;&gt;C0 -->
<g id="edge4" class="edge">
<title>E4&#45;&gt;C0</title>
<path fill="none" stroke="black" stroke-dasharray="5,2" d="M209.19,-68.48C220.68,-73.26 232.28,-78.18 243.25,-83 275.2,-97.04 309.62,-113 340.88,-127.83"/>
<polygon fill="black" stroke="black" points="339.01,-130.81 349.54,-131.94 342.02,-124.49 339.01,-130.81"/>
<text xml:space="preserve" text-anchor="middle" x="285.88" y="-110.34" font-family="Helvetica,sans-Serif" font-size="9.00">attacks</text>
</g>
</g>
</svg>
