<?xml version="1.0" encoding="UTF-8" standalone="no"?>
<!DOCTYPE svg PUBLIC "-//W3C//DTD SVG 1.1//EN"
 "http://www.w3.org/Graphics/SVG/1.1/DTD/svg11.dtd">
<!-- Generated by graphviz version 14.1.2 (20260124.0452)
 -->
<!-- Pages: 1 -->
<svg width="579pt" height="307pt"
 viewBox="0.00 0.00 579.00 307.00" xmlns="http://www.w3.org/2000/svg" xmlns:xlink="http://www.w3.org/1999/xlink">
<g id="graph0" class="graph" transform="scale(1 1) rotate(0) translate(4 303)">
<polygon fill="white" stroke="none" points="-4,4 -4,-303 575,-303 575,4 -4,4"/>
<!-- C0 -->
<g id="node1" class="node">
<title>C0</title>
<path fill="#fff3b0" stroke="black" d="M559,-195C559,-195 334.5,-195 334.5,-195 328.5,-195 322.5,-189 322.5,-183 322.5,-183 322.5,-127 322.5,-127 322.5,-121 328.5,-115 334.5,-115 334.5,-115 559,-115 559,-115 565,-115 571,-121 571,-127 571,-127 571,-183 571,-183 571,-189 565,-195 559,-195"/>
<text xml:space="preserve" text-anchor="middle" x="446.75" y="-181.5" font-family="Helvetica,sans-Serif" font-size="10.00">PMID:35481953</text>
<text xml:space="preserve" text-anchor="middle" x="446.75" y="-169.5" font-family="Helvetica,sans-Serif" font-size="10.00">symptoms_diagnosis</text>
<text xml:space="preserve" text-anchor="middle" x="446.75" y="-145.5" font-family="Helvetica,sans-Serif" font-size="10.00">CLAIM C0</text>
<text xml:space="preserve" text-anchor="middle" x="446.75" y="-133.5" font-family="Helvetica,sans-Serif" font-size="10.00">Healthcare professional awareness and knowledge of</text>
<text xml:space="preserve" text-anchor="middle" x="446.75" y="-121.5" font-family="Helvetica,sans-Serif" font-size="10.00">sepsis is high compared with patients/public</text>
</g>
<!-- E1 -->
<g id="node2" class="node">
<title>E1</title>
<path fill="#dff7df" stroke="black" d="M225.25,-299C225.25,-299 12,-299 12,-299 6,-299 0,-293 0,-287 0,-287 0,-267 0,-267 0,-261 6,-255 12,-255 12,-255 225.25,-255 225.25,-255 231.25,-255 237.25,-261 237.25,-267 237.25,-267 237.25,-287 237.25,-287 237.25,-293 231.25,-299 225.25,-299"/>
<text xml:space="preserve" text-anchor="middle" x="118.62" y="-285.5" font-family="Helvetica,sans-Serif" font-size="10.00">E1 [Results] (SUPPORT)</text>
<text xml:space="preserve" text-anchor="middle" x="118.62" y="-273.5" font-family="Helvetica,sans-Serif" font-size="10.00">Healthcare professional awareness and knowledge</text>
<text xml:space="preserve" text-anchor="middle" x="118.62" y="-261.5" font-family="Helvetica,sans-Serif" font-size="10.00">of sepsis is high compared with patients/public.</text>
</g>
<!-- E1&#45;&gt;C0 -->
<g id="edge1" class="edge">
<title>E1&#45;&gt;C0</title>
<path fill="none" stroke="black" d="M196.84,-254.51C210.38,-250.24 224.28,-245.65 237.25,-241 271.99,-228.55 309.41,-213.61 342.83,-199.7"/>
<polygon fill="black" stroke="black" points="343.79,-203.09 351.67,-196.01 341.09,-196.63 343.79,-203.09"/>
<text xml:space="preserve" text-anchor="middle" x="279.88" y="-232.32" font-family="Helvetica,sans-Serif" font-size="9.00">supports</text>
</g>
<!-- E2 -->
<g id="node3" class="node">
<title>E2</title>
<path fill="#dff7df" stroke="black" d="M217.75,-226C217.75,-226 19.5,-226 19.5,-226 13.5,-226 7.5,-220 7.5,-214 7.5,-214 7.5,-182 7.5,-182 7.5,-176 13.5,-170 19.5,-170 19.5,-170 217.75,-170 217.75,-170 223.75,-170 229.75,-176 229.75,-182 229.75,-182 229.75,-214 229.75,-214 229.75,-220 223.75,-226 217.75,-226"/>
<text xml:space="preserve" text-anchor="middle" x="118.62" y="-212.5" font-family="Helvetica,sans-Serif" font-size="10.00">E2 [Results] (SUPPORT)</text>
<text xml:space="preserve" text-anchor="middle" x="118.62" y="-200.5" font-family="Helvetica,sans-Serif" font-size="10.00">The proportion of patients/public who had heard</text>
<text xml:space="preserve" text-anchor="middle" x="118.62" y="-188.5" font-family="Helvetica,sans-Serif" font-size="10.00">of the term sepsis ranged from 2% (Japan) to</text>
<text xml:space="preserve" text-anchor="middle" x="118.62" y="-176.5" font-family="Helvetica,sans-Serif" font-size="10.00">88.6% (Germany).</text>
</g>
<!-- E2&#45;&gt;C0 -->
<g id="edge2" class="edge">
<title>E2&#45;&gt;C0</title>
<path fill="none" stroke="black" d="M230.04,-183.44C256.1,-180.01 284.18,-176.3 311.18,-172.74"/>
<polygon fill="black" stroke="black" points="311.32,-176.26 320.77,-171.48 310.4,-169.32 311.32,-176.26"/>
<text xml:space="preserve" text-anchor="middle" x="279.88" y="-181.02" font-family="Helvetica,sans-Serif" font-size="9.00">supports</text>
</g>
<!-- E3 -->
<g id="node4" class="node">
<title>E3</title>
<path fill="#dff7df" stroke="black" d="M217.75,-141C217.75,-141 19.5,-141 19.5,-141 13.5,-141 7.5,-135 7.5,-129 7.5,-129 7.5,-97 7.5,-97 7.5,-91 13.5,-85 19.5,-85 19.5,-85 217.75,-85 217.75,-85 223.75,-85 229.75,-91 229.75,-97 229.75,-97 229.75,-129 229.75,-129 229.75,-135 223.75,-141 217.75,-141"/>
<text xml:space="preserve" text-anchor="middle" x="118.62" y="-127.5" font-family="Helvetica,sans-Serif" font-size="10.00">E3 [Results] (SUPPORT)</text>
<text xml:space="preserve" text-anchor="middle" x="118.62" y="-115.5" font-family="Helvetica,sans-Serif" font-size="10.00">The proportions of patients/public who correctly</text>
<text xml:space="preserve" text-anchor="middle" x="118.62" y="-103.5" font-family="Helvetica,sans-Serif" font-size="10.00">identified the definition of sepsis ranged from</text>
<text xml:space="preserve" text-anchor="middle" x="118.62" y="-91.5" font-family="Helvetica,sans-Serif" font-size="10.00">4.2% (Singapore) to 92% (Sweden).</text>
</g>
<!-- E3&#45;&gt;C0 -->
<g id="edge3" class="edge">
<title>E3&#45;&gt;C0</title>
<path fill="none" stroke="black" d="M230.04,-127.22C256.1,-130.58 284.18,-134.19 311.18,-137.67"/>
<polygon fill="black" stroke="black" points="310.41,-141.1 320.77,-138.9 311.3,-134.16 310.41,-141.1"/>
<text xml:space="preserve" text-anchor="middle" x="279.88" y="-137.21" font-family="Helvetica,sans-Serif" font-size="9.00">supports</text>
</g>
<!-- E4 -->
<g id="node5" class="node">
<title>E4</title>
<path fill="#ffd6d6" stroke="black" d="M218.5,-56C218.5,-56 18.75,-56 18.75,-56 12.75,-56 6.75,-50 6.75,-44 6.75,-44 6.75,-12 6.75,-12 6.75,-6 12.75,0 18.75,0 18.75,0 218.5,0 218.5,0 224.5,0 230.5,-6 230.5,-12 230.5,-12 230.5,-44 230.5,-44 230.5,-50 224.5,-56 218.5,-56"/>
<text xml:space="preserve" text-anchor="middle" x="118.62" y="-42.5" font-family="Helvetica,sans-Serif" font-size="10.00">E4 [Results] (ATTACK)</text>
<text xml:space="preserve" text-anchor="middle" x="118.62" y="-30.5" font-family="Helvetica,sans-Serif" font-size="10.00">The results from the included studies appear to</text>
<text xml:space="preserve" text-anchor="middle" x="118.62" y="-18.5" font-family="Helvetica,sans-Serif" font-size="10.00">suggest that patient/public awareness of sepsis</text>
<text xml:space="preserve" text-anchor="middle" x="118.62" y="-6.5" font-family="Helvetica,sans-Serif" font-size="10.00">gradually improved over time.</text>
</g>
<!-- E4&#45;&gt;C0 -->
<g id="edge4" class="edge">
<title>E4&#45;&gt;C0</title>
<path fill="none" stroke="black" stroke-dasharray="5,2" d="M198.53,-56.44C211.49,-61.23 224.77,-66.21 237.25,-71 269.79,-83.5 305.01,-97.51 337.08,-110.44"/>
<polygon fill="black" stroke="black" points="335.39,-113.53 345.97,-114.03 338.01,-107.04 335.39,-113.53"/>
<text xml:space="preserve" text-anchor="middle" x="279.88" y="-95.44" font-family="Helvetica,sans-Serif" font-size="9.00">attacks</text>
</g>
</g>
</svg>
