<?xml version="1.0" encoding="UTF-8" standalone="no"?>
<!DOCTYPE svg PUBLIC "-//W3C//DTD SVG 1.1//EN"
 "http://www.w3.org/Graphics/SVG/1.1/DTD/svg11.dtd">
<!-- Generated by graphviz version 14.1.2 (20260124.0452)
 -->
<!-- Pages: 1 -->
<svg width="535pt" height="100pt"
 viewBox="0.00 0.00 535.00 100.00" xmlns="http://www.w3.org/2000/svg" xmlns:xlink="http://www.w3.org/1999/xlink">
<g id="graph0" class="graph" transform="scale(1 1) rotate(0) translate(4 96)">
<polygon fill="white" stroke="none" points="-4,4 -4,-96 530.75,-96 530.75,4 -4,4"/>
<!-- C0 -->
<g id="node1" class="node">
<title>C0</title>
<path fill="#fff3b0" stroke="black" d="M514.75,-92C514.75,-92 306,-92 306,-92 300,-92 294,-86 294,-80 294,-80 294,-12 294,-12 294,-6 300,0 306,0 306,0 514.75,0 514.75,0 520.75,0 526.75,-6 526.75,-12 526.75,-12 526.75,-80 526.75,-80 526.75,-86 520.75,-92 514.75,-92"/>
<text xml:space="preserve" text-anchor="middle" x="410.38" y="-78.5" font-family="Helvetica,sans-Serif" font-size="10.00">PMID:37278760</text>
<text xml:space="preserve" text-anchor="middle" x="410.38" y="-66.5" font-family="Helvetica,sans-Serif" font-size="10.00">symptoms_diagnosis</text>
<text xml:space="preserve" text-anchor="middle" x="410.38" y="-42.5" font-family="Helvetica,sans-Serif" font-size="10.00">CLAIM C0</text>
<text xml:space="preserve" text-anchor="middle" x="410.38" y="-30.5" font-family="Helvetica,sans-Serif" font-size="10.00">Considering sublingual microcirculatory perfusion</text>
<text xml:space="preserve" text-anchor="middle" x="410.38" y="-18.5" font-family="Helvetica,sans-Serif" font-size="10.00">variables in the therapeutic management does not</text>
<text xml:space="preserve" text-anchor="middle" x="410.38" y="-6.5" font-family="Helvetica,sans-Serif" font-size="10.00">reduce 30&#45;day mortality in shock patients</text>
</g>
<!-- E1 -->
<g id="node2" class="node">
<title>E1</title>
<path fill="#dff7df" stroke="black" d="M196.75,-80C196.75,-80 12,-80 12,-80 6,-80 0,-74 0,-68 0,-68 0,-24 0,-24 0,-18 6,-12 12,-12 12,-12 196.75,-12 196.75,-12 202.75,-12 208.75,-18 208.75,-24 208.75,-24 208.75,-68 208.75,-68 208.75,-74 202.75,-80 196.75,-80"/>
<text xml:space="preserve" text-anchor="middle" x="104.38" y="-66.5" font-family="Helvetica,sans-Serif" font-size="10.00">E1 [Introduction] (SUPPORT)</text>
<text xml:space="preserve" text-anchor="middle" x="104.38" y="-54.5" font-family="Helvetica,sans-Serif" font-size="10.00">In this prospective randomized&#45;controlled</text>
<text xml:space="preserve" text-anchor="middle" x="104.38" y="-42.5" font-family="Helvetica,sans-Serif" font-size="10.00">multicenter study, integrating sublingual</text>
<text xml:space="preserve" text-anchor="middle" x="104.38" y="-30.5" font-family="Helvetica,sans-Serif" font-size="10.00">microcirculatory perfusion variables in the</text>
<text xml:space="preserve" text-anchor="middle" x="104.38" y="-18.5" font-family="Helvetica,sans-Serif" font-size="10.00">therapy plan resulted in significantly more ...</text>
</g>
<!-- E1&#45;&gt;C0 -->
<g id="edge1" class="edge">
<title>E1&#45;&gt;C0</title>
<path fill="none" stroke="black" d="M209.14,-46C232.61,-46 257.78,-46 282.08,-46"/>
<polygon fill="black" stroke="black" points="282.04,-49.5 292.04,-46 282.04,-42.5 282.04,-49.5"/>
<text xml:space="preserve" text-anchor="middle" x="251.38" y="-47.95" font-family="Helvetica,sans-Serif" font-size="9.00">supports</text>
</g>
</g>
</svg>
