<?xml version="1.0" encoding="UTF-8" standalone="no"?>
<!DOCTYPE svg PUBLIC "-//W3C//DTD SVG 1.1//EN"
 "http://www.w3.org/Graphics/SVG/1.1/DTD/svg11.dtd">
<!-- Generated by graphviz version 14.1.2 (20260124.0452)
 -->
<!-- Pages: 1 -->
<svg width="564pt" height="258pt"
 viewBox="0.00 0.00 564.00 258.00" xmlns="http://www.w3.org/2000/svg" xmlns:xlink="http://www.w3.org/1999/xlink">
<g id="graph0" class="graph" transform="scale(1 1) rotate(0) translate(4 254)">
<polygon fill="white" stroke="none" points="-4,4 -4,-254 560,-254 560,4 -4,4"/>
<!-- C0 -->
<g id="node1" class="node">
<title>C0</title>
<path fill="#fff3b0" stroke="black" d="M544,-171C544,-171 339.75,-171 339.75,-171 333.75,-171 327.75,-165 327.75,-159 327.75,-159 327.75,-91 327.75,-91 327.75,-85 333.75,-79 339.75,-79 339.75,-79 544,-79 544,-79 550,-79 556,-85 556,-91 556,-91 556,-159 556,-159 556,-165 550,-171 544,-171"/>
<text xml:space="preserve" text-anchor="middle" x="441.88" y="-157.5" font-family="Helvetica,sans-Serif" font-size="10.00">PMID:37888913</text>
<text xml:space="preserve" text-anchor="middle" x="441.88" y="-145.5" font-family="Helvetica,sans-Serif" font-size="10.00">sepsis_diagnosis_criteria</text>
<text xml:space="preserve" text-anchor="middle" x="441.88" y="-121.5" font-family="Helvetica,sans-Serif" font-size="10.00">CLAIM C0</text>
<text xml:space="preserve" text-anchor="middle" x="441.88" y="-109.5" font-family="Helvetica,sans-Serif" font-size="10.00">Simvastatin does not significantly improve</text>
<text xml:space="preserve" text-anchor="middle" x="441.88" y="-97.5" font-family="Helvetica,sans-Serif" font-size="10.00">respiratory and cardiovascular organ support&#45;free</text>
<text xml:space="preserve" text-anchor="middle" x="441.88" y="-85.5" font-family="Helvetica,sans-Serif" font-size="10.00">days in critically ill patients with Covid&#45;19</text>
</g>
<!-- E1 -->
<g id="node2" class="node">
<title>E1</title>
<path fill="#dff7df" stroke="black" d="M230.5,-250C230.5,-250 12,-250 12,-250 6,-250 0,-244 0,-238 0,-238 0,-194 0,-194 0,-188 6,-182 12,-182 12,-182 230.5,-182 230.5,-182 236.5,-182 242.5,-188 242.5,-194 242.5,-194 242.5,-238 242.5,-238 242.5,-244 236.5,-250 230.5,-250"/>
<text xml:space="preserve" text-anchor="middle" x="121.25" y="-236.5" font-family="Helvetica,sans-Serif" font-size="10.00">E1 [Results] (SUPPORT)</text>
<text xml:space="preserve" text-anchor="middle" x="121.25" y="-224.5" font-family="Helvetica,sans-Serif" font-size="10.00">The median number of organ support–free days was</text>
<text xml:space="preserve" text-anchor="middle" x="121.25" y="-212.5" font-family="Helvetica,sans-Serif" font-size="10.00">11 (interquartile range, −1 to 17) in the</text>
<text xml:space="preserve" text-anchor="middle" x="121.25" y="-200.5" font-family="Helvetica,sans-Serif" font-size="10.00">simvastatin group and 7 (interquartile range, −1</text>
<text xml:space="preserve" text-anchor="middle" x="121.25" y="-188.5" font-family="Helvetica,sans-Serif" font-size="10.00">to 16) in the control group</text>
</g>
<!-- E1&#45;&gt;C0 -->
<g id="edge1" class="edge">
<title>E1&#45;&gt;C0</title>
<path fill="none" stroke="black" d="M242.71,-181.6C266.78,-174.72 292.11,-167.49 316.31,-160.58"/>
<polygon fill="black" stroke="black" points="317.24,-163.95 325.89,-157.84 315.31,-157.22 317.24,-163.95"/>
<text xml:space="preserve" text-anchor="middle" x="285.12" y="-175.18" font-family="Helvetica,sans-Serif" font-size="9.00">supports</text>
</g>
<!-- E2 -->
<g id="node3" class="node">
<title>E2</title>
<path fill="#dff7df" stroke="black" d="M216.25,-153C216.25,-153 26.25,-153 26.25,-153 20.25,-153 14.25,-147 14.25,-141 14.25,-141 14.25,-109 14.25,-109 14.25,-103 20.25,-97 26.25,-97 26.25,-97 216.25,-97 216.25,-97 222.25,-97 228.25,-103 228.25,-109 228.25,-109 228.25,-141 228.25,-141 228.25,-147 222.25,-153 216.25,-153"/>
<text xml:space="preserve" text-anchor="middle" x="121.25" y="-139.5" font-family="Helvetica,sans-Serif" font-size="10.00">E2 [Results] (SUPPORT)</text>
<text xml:space="preserve" text-anchor="middle" x="121.25" y="-127.5" font-family="Helvetica,sans-Serif" font-size="10.00">The posterior median adjusted odds ratio was</text>
<text xml:space="preserve" text-anchor="middle" x="121.25" y="-115.5" font-family="Helvetica,sans-Serif" font-size="10.00">1.15 (95% credible interval, 0.98 to 1.34) for</text>
<text xml:space="preserve" text-anchor="middle" x="121.25" y="-103.5" font-family="Helvetica,sans-Serif" font-size="10.00">simvastatin</text>
</g>
<!-- E2&#45;&gt;C0 -->
<g id="edge2" class="edge">
<title>E2&#45;&gt;C0</title>
<path fill="none" stroke="black" d="M228.35,-125C256.4,-125 286.93,-125 315.88,-125"/>
<polygon fill="black" stroke="black" points="315.8,-128.5 325.8,-125 315.8,-121.5 315.8,-128.5"/>
<text xml:space="preserve" text-anchor="middle" x="285.12" y="-126.95" font-family="Helvetica,sans-Serif" font-size="9.00">supports</text>
</g>
<!-- E3 -->
<g id="node4" class="node">
<title>E3</title>
<path fill="#dff7df" stroke="black" d="M224.5,-68C224.5,-68 18,-68 18,-68 12,-68 6,-62 6,-56 6,-56 6,-12 6,-12 6,-6 12,0 18,0 18,0 224.5,0 224.5,0 230.5,0 236.5,-6 236.5,-12 236.5,-12 236.5,-56 236.5,-56 236.5,-62 230.5,-68 224.5,-68"/>
<text xml:space="preserve" text-anchor="middle" x="121.25" y="-54.5" font-family="Helvetica,sans-Serif" font-size="10.00">E3 [Method] (SUPPORT)</text>
<text xml:space="preserve" text-anchor="middle" x="121.25" y="-42.5" font-family="Helvetica,sans-Serif" font-size="10.00">The adaptive design included prespecified</text>
<text xml:space="preserve" text-anchor="middle" x="121.25" y="-30.5" font-family="Helvetica,sans-Serif" font-size="10.00">statistical stopping criteria for superiority</text>
<text xml:space="preserve" text-anchor="middle" x="121.25" y="-18.5" font-family="Helvetica,sans-Serif" font-size="10.00">(&gt;99% posterior probability that the odds ratio</text>
<text xml:space="preserve" text-anchor="middle" x="121.25" y="-6.5" font-family="Helvetica,sans-Serif" font-size="10.00">was &gt;1) and futility (&gt;95% posterior probability ...</text>
</g>
<!-- E3&#45;&gt;C0 -->
<g id="edge3" class="edge">
<title>E3&#45;&gt;C0</title>
<path fill="none" stroke="black" d="M236.83,-66.72C262.7,-74.11 290.29,-81.99 316.54,-89.49"/>
<polygon fill="black" stroke="black" points="315.28,-92.77 325.85,-92.15 317.2,-86.04 315.28,-92.77"/>
<text xml:space="preserve" text-anchor="middle" x="285.12" y="-86.9" font-family="Helvetica,sans-Serif" font-size="9.00">supports</text>
</g>
</g>
</svg>
