<?xml version="1.0" encoding="UTF-8" standalone="no"?>
<!DOCTYPE svg PUBLIC "-//W3C//DTD SVG 1.1//EN"
 "http://www.w3.org/Graphics/SVG/1.1/DTD/svg11.dtd">
<!-- Generated by graphviz version 14.1.2 (20260124.0452)
 -->
<!-- Pages: 1 -->
<svg width="252pt" height="112pt"
 viewBox="0.00 0.00 252.00 112.00" xmlns="http://www.w3.org/2000/svg" xmlns:xlink="http://www.w3.org/1999/xlink">
<g id="graph0" class="graph" transform="scale(1 1) rotate(0) translate(4 108)">
<polygon fill="white" stroke="none" points="-4,4 -4,-108 248,-108 248,4 -4,4"/>
<!-- C0 -->
<g id="node1" class="node">
<title>C0</title>
<path fill="#fff3b0" stroke="black" d="M232,-104C232,-104 12,-104 12,-104 6,-104 0,-98 0,-92 0,-92 0,-12 0,-12 0,-6 6,0 12,0 12,0 232,0 232,0 238,0 244,-6 244,-12 244,-12 244,-92 244,-92 244,-98 238,-104 232,-104"/>
<text xml:space="preserve" text-anchor="middle" x="122" y="-90.5" font-family="Helvetica,sans-Serif" font-size="10.00">PMID:35426840</text>
<text xml:space="preserve" text-anchor="middle" x="122" y="-78.5" font-family="Helvetica,sans-Serif" font-size="10.00">treatment_recommendation</text>
<text xml:space="preserve" text-anchor="middle" x="122" y="-54.5" font-family="Helvetica,sans-Serif" font-size="10.00">CLAIM C0</text>
<text xml:space="preserve" text-anchor="middle" x="122" y="-42.5" font-family="Helvetica,sans-Serif" font-size="10.00">Objective: Temperature abnormalities are recognized</text>
<text xml:space="preserve" text-anchor="middle" x="122" y="-30.5" font-family="Helvetica,sans-Serif" font-size="10.00">as a marker of human disease, and the therapeutic</text>
<text xml:space="preserve" text-anchor="middle" x="122" y="-18.5" font-family="Helvetica,sans-Serif" font-size="10.00">value of temperature is an attractive treatment</text>
<text xml:space="preserve" text-anchor="middle" x="122" y="-6.5" font-family="Helvetica,sans-Serif" font-size="10.00">target.</text>
</g>
</g>
</svg>
