<?xml version="1.0" encoding="UTF-8" standalone="no"?>
<!DOCTYPE svg PUBLIC "-//W3C//DTD SVG 1.1//EN"
 "http://www.w3.org/Graphics/SVG/1.1/DTD/svg11.dtd">
<!-- Generated by graphviz version 14.1.2 (20260124.0452)
 -->
<!-- Pages: 1 -->
<svg width="228pt" height="112pt"
 viewBox="0.00 0.00 228.00 112.00" xmlns="http://www.w3.org/2000/svg" xmlns:xlink="http://www.w3.org/1999/xlink">
<g id="graph0" class="graph" transform="scale(1 1) rotate(0) translate(4 108)">
<polygon fill="white" stroke="none" points="-4,4 -4,-108 224,-108 224,4 -4,4"/>
<!-- C0 -->
<g id="node1" class="node">
<title>C0</title>
<path fill="#fff3b0" stroke="black" d="M208,-104C208,-104 12,-104 12,-104 6,-104 0,-98 0,-92 0,-92 0,-12 0,-12 0,-6 6,0 12,0 12,0 208,0 208,0 214,0 220,-6 220,-12 220,-12 220,-92 220,-92 220,-98 214,-104 208,-104"/>
<text xml:space="preserve" text-anchor="middle" x="110" y="-90.5" font-family="Helvetica,sans-Serif" font-size="10.00">PMID:36400984</text>
<text xml:space="preserve" text-anchor="middle" x="110" y="-78.5" font-family="Helvetica,sans-Serif" font-size="10.00">treatment_recommendation</text>
<text xml:space="preserve" text-anchor="middle" x="110" y="-54.5" font-family="Helvetica,sans-Serif" font-size="10.00">CLAIM C0</text>
<text xml:space="preserve" text-anchor="middle" x="110" y="-42.5" font-family="Helvetica,sans-Serif" font-size="10.00">Secondary outcomes included postextubation</text>
<text xml:space="preserve" text-anchor="middle" x="110" y="-30.5" font-family="Helvetica,sans-Serif" font-size="10.00">respiratory failure, respiratory infection, sepsis,</text>
<text xml:space="preserve" text-anchor="middle" x="110" y="-18.5" font-family="Helvetica,sans-Serif" font-size="10.00">multiorgan failure, length of stay, mortality,</text>
<text xml:space="preserve" text-anchor="middle" x="110" y="-6.5" font-family="Helvetica,sans-Serif" font-size="10.00">adverse events, and time to reintubation.</text>
</g>
</g>
</svg>
