<?xml version="1.0" encoding="UTF-8" standalone="no"?>
<!DOCTYPE svg PUBLIC "-//W3C//DTD SVG 1.1//EN"
 "http://www.w3.org/Graphics/SVG/1.1/DTD/svg11.dtd">
<!-- Generated by graphviz version 14.1.2 (20260124.0452)
 -->
<!-- Pages: 1 -->
<svg width="872pt" height="270pt"
 viewBox="0.00 0.00 872.00 270.00" xmlns="http://www.w3.org/2000/svg" xmlns:xlink="http://www.w3.org/1999/xlink">
<g id="graph0" class="graph" transform="scale(1 1) rotate(0) translate(4 266)">
<polygon fill="white" stroke="none" points="-4,4 -4,-266 867.5,-266 867.5,4 -4,4"/>
<!-- C0 -->
<g id="node1" class="node">
<title>C0</title>
<path fill="#fff3b0" stroke="black" d="M851.5,-102C851.5,-102 630,-102 630,-102 624,-102 618,-96 618,-90 618,-90 618,-22 618,-22 618,-16 624,-10 630,-10 630,-10 851.5,-10 851.5,-10 857.5,-10 863.5,-16 863.5,-22 863.5,-22 863.5,-90 863.5,-90 863.5,-96 857.5,-102 851.5,-102"/>
<text xml:space="preserve" text-anchor="middle" x="740.75" y="-88.5" font-family="Helvetica,sans-Serif" font-size="10.00">PMID:33067640</text>
<text xml:space="preserve" text-anchor="middle" x="740.75" y="-76.5" font-family="Helvetica,sans-Serif" font-size="10.00">symptoms_diagnosis</text>
<text xml:space="preserve" text-anchor="middle" x="740.75" y="-52.5" font-family="Helvetica,sans-Serif" font-size="10.00">CLAIM C0</text>
<text xml:space="preserve" text-anchor="middle" x="740.75" y="-40.5" font-family="Helvetica,sans-Serif" font-size="10.00">Meta&#45;analyses and several large cohort studies have</text>
<text xml:space="preserve" text-anchor="middle" x="740.75" y="-28.5" font-family="Helvetica,sans-Serif" font-size="10.00">demonstrated that antiseptic mouthwashes are</text>
<text xml:space="preserve" text-anchor="middle" x="740.75" y="-16.5" font-family="Helvetica,sans-Serif" font-size="10.00">associated with mortality in hospitalized</text>
</g>
<!-- E1 -->
<g id="node2" class="node">
<title>E1</title>
<path fill="#ffd6d6" stroke="black" d="M525.25,-165C525.25,-165 312,-165 312,-165 306,-165 300,-159 300,-153 300,-153 300,-109 300,-109 300,-103 306,-97 312,-97 312,-97 525.25,-97 525.25,-97 531.25,-97 537.25,-103 537.25,-109 537.25,-109 537.25,-153 537.25,-153 537.25,-159 531.25,-165 525.25,-165"/>
<text xml:space="preserve" text-anchor="middle" x="418.62" y="-151.5" font-family="Helvetica,sans-Serif" font-size="10.00">E1 [Discussion] (ATTACK)</text>
<text xml:space="preserve" text-anchor="middle" x="418.62" y="-139.5" font-family="Helvetica,sans-Serif" font-size="10.00">Discussion pathway by antiseptic mouthwash lead</text>
<text xml:space="preserve" text-anchor="middle" x="418.62" y="-127.5" font-family="Helvetica,sans-Serif" font-size="10.00">The observed risk of mortality associated with</text>
<text xml:space="preserve" text-anchor="middle" x="418.62" y="-115.5" font-family="Helvetica,sans-Serif" font-size="10.00">antisepto increased mortality in hospitalized</text>
<text xml:space="preserve" text-anchor="middle" x="418.62" y="-103.5" font-family="Helvetica,sans-Serif" font-size="10.00">patients?</text>
</g>
<!-- E1&#45;&gt;C0 -->
<g id="edge4" class="edge">
<title>E1&#45;&gt;C0</title>
<path fill="none" stroke="black" stroke-dasharray="5,2" d="M537.46,-103.39C559.91,-98.13 583.55,-92.6 606.43,-87.23"/>
<polygon fill="black" stroke="black" points="607.19,-90.65 616.13,-84.96 605.59,-83.84 607.19,-90.65"/>
<text xml:space="preserve" text-anchor="middle" x="578.75" y="-97.7" font-family="Helvetica,sans-Serif" font-size="9.00">attacks</text>
</g>
<!-- E1_1 -->
<g id="node3" class="node">
<title>E1_1</title>
<path fill="#ffd6d6" stroke="black" d="M204.25,-262C204.25,-262 15,-262 15,-262 9,-262 3,-256 3,-250 3,-250 3,-206 3,-206 3,-200 9,-194 15,-194 15,-194 204.25,-194 204.25,-194 210.25,-194 216.25,-200 216.25,-206 216.25,-206 216.25,-250 216.25,-250 216.25,-256 210.25,-262 204.25,-262"/>
<text xml:space="preserve" text-anchor="middle" x="109.62" y="-248.5" font-family="Helvetica,sans-Serif" font-size="10.00">E1_1 [Discussion] (ATTACK)</text>
<text xml:space="preserve" text-anchor="middle" x="109.62" y="-236.5" font-family="Helvetica,sans-Serif" font-size="10.00">This condition leads to defective NO</text>
<text xml:space="preserve" text-anchor="middle" x="109.62" y="-224.5" font-family="Helvetica,sans-Serif" font-size="10.00">bioavailability, that reduced NO bioavailability</text>
<text xml:space="preserve" text-anchor="middle" x="109.62" y="-212.5" font-family="Helvetica,sans-Serif" font-size="10.00">is associated with the facilitating the</text>
<text xml:space="preserve" text-anchor="middle" x="109.62" y="-200.5" font-family="Helvetica,sans-Serif" font-size="10.00">occurrence of cardiovascular and septic ...</text>
</g>
<!-- E1_1&#45;&gt;E1 -->
<g id="edge1" class="edge">
<title>E1_1&#45;&gt;E1</title>
<path fill="none" stroke="black" stroke-dasharray="5,2" d="M216.71,-194.48C242.83,-186.23 270.99,-177.33 297.71,-168.89"/>
<polygon fill="black" stroke="black" points="298.75,-172.23 307.23,-165.88 296.64,-165.56 298.75,-172.23"/>
<text xml:space="preserve" text-anchor="middle" x="258.5" y="-187.26" font-family="Helvetica,sans-Serif" font-size="9.00">attacks</text>
</g>
<!-- E1_2 -->
<g id="node4" class="node">
<title>E1_2</title>
<path fill="#ffd6d6" stroke="black" d="M202.38,-165C202.38,-165 16.88,-165 16.88,-165 10.88,-165 4.88,-159 4.88,-153 4.88,-153 4.88,-109 4.88,-109 4.88,-103 10.88,-97 16.88,-97 16.88,-97 202.38,-97 202.38,-97 208.38,-97 214.38,-103 214.38,-109 214.38,-109 214.38,-153 214.38,-153 214.38,-159 208.38,-165 202.38,-165"/>
<text xml:space="preserve" text-anchor="middle" x="109.62" y="-151.5" font-family="Helvetica,sans-Serif" font-size="10.00">E1_2 [Discussion] (ATTACK)</text>
<text xml:space="preserve" text-anchor="middle" x="109.62" y="-139.5" font-family="Helvetica,sans-Serif" font-size="10.00">After excluding patients with a observations,</text>
<text xml:space="preserve" text-anchor="middle" x="109.62" y="-127.5" font-family="Helvetica,sans-Serif" font-size="10.00">one may assume that in patients treated</text>
<text xml:space="preserve" text-anchor="middle" x="109.62" y="-115.5" font-family="Helvetica,sans-Serif" font-size="10.00">diagnosis of sepsis at admission, the overall</text>
<text xml:space="preserve" text-anchor="middle" x="109.62" y="-103.5" font-family="Helvetica,sans-Serif" font-size="10.00">rate of sepwith proton&#45;pump inhibitors ...</text>
</g>
<!-- E1_2&#45;&gt;E1 -->
<g id="edge2" class="edge">
<title>E1_2&#45;&gt;E1</title>
<path fill="none" stroke="black" stroke-dasharray="5,2" d="M214.56,-131C238.24,-131 263.69,-131 288.29,-131"/>
<polygon fill="black" stroke="black" points="288.01,-134.5 298.01,-131 288.01,-127.5 288.01,-134.5"/>
<text xml:space="preserve" text-anchor="middle" x="258.5" y="-132.95" font-family="Helvetica,sans-Serif" font-size="9.00">attacks</text>
</g>
<!-- E1_3 -->
<g id="node5" class="node">
<title>E1_3</title>
<path fill="#ffd6d6" stroke="black" d="M207.25,-68C207.25,-68 12,-68 12,-68 6,-68 0,-62 0,-56 0,-56 0,-12 0,-12 0,-6 6,0 12,0 12,0 207.25,0 207.25,0 213.25,0 219.25,-6 219.25,-12 219.25,-12 219.25,-56 219.25,-56 219.25,-62 213.25,-68 207.25,-68"/>
<text xml:space="preserve" text-anchor="middle" x="109.62" y="-54.5" font-family="Helvetica,sans-Serif" font-size="10.00">E1_3 [Discussion] (ATTACK)</text>
<text xml:space="preserve" text-anchor="middle" x="109.62" y="-42.5" font-family="Helvetica,sans-Serif" font-size="10.00">Likewise, in illness (e.g., acute organ</text>
<text xml:space="preserve" text-anchor="middle" x="109.62" y="-30.5" font-family="Helvetica,sans-Serif" font-size="10.00">failure), patients’ comorbidities the large</text>
<text xml:space="preserve" text-anchor="middle" x="109.62" y="-18.5" font-family="Helvetica,sans-Serif" font-size="10.00">hospital&#45;wide cohort by Deschepper et al., [20]</text>
<text xml:space="preserve" text-anchor="middle" x="109.62" y="-6.5" font-family="Helvetica,sans-Serif" font-size="10.00">(especially cardiovascular risk factors, e.g., ...</text>
</g>
<!-- E1_3&#45;&gt;E1 -->
<g id="edge3" class="edge">
<title>E1_3&#45;&gt;E1</title>
<path fill="none" stroke="black" stroke-dasharray="5,2" d="M219.73,-68.47C244.99,-76.45 272,-84.99 297.69,-93.11"/>
<polygon fill="black" stroke="black" points="296.58,-96.43 307.17,-96.1 298.69,-89.75 296.58,-96.43"/>
<text xml:space="preserve" text-anchor="middle" x="258.5" y="-84.45" font-family="Helvetica,sans-Serif" font-size="9.00">attacks</text>
</g>
<!-- E2 -->
<g id="node6" class="node">
<title>E2</title>
<path fill="#ffd6d6" stroke="black" d="M527.5,-68C527.5,-68 309.75,-68 309.75,-68 303.75,-68 297.75,-62 297.75,-56 297.75,-56 297.75,-12 297.75,-12 297.75,-6 303.75,0 309.75,0 309.75,0 527.5,0 527.5,0 533.5,0 539.5,-6 539.5,-12 539.5,-12 539.5,-56 539.5,-56 539.5,-62 533.5,-68 527.5,-68"/>
<text xml:space="preserve" text-anchor="middle" x="418.62" y="-54.5" font-family="Helvetica,sans-Serif" font-size="10.00">E2 [Method] (ATTACK)</text>
<text xml:space="preserve" text-anchor="middle" x="418.62" y="-42.5" font-family="Helvetica,sans-Serif" font-size="10.00">Nitric oxide is essential in multiple</text>
<text xml:space="preserve" text-anchor="middle" x="418.62" y="-30.5" font-family="Helvetica,sans-Serif" font-size="10.00">physiological processes, and a reduction in</text>
<text xml:space="preserve" text-anchor="middle" x="418.62" y="-18.5" font-family="Helvetica,sans-Serif" font-size="10.00">nitric oxide bioavailability is associated with</text>
<text xml:space="preserve" text-anchor="middle" x="418.62" y="-6.5" font-family="Helvetica,sans-Serif" font-size="10.00">the occurrence or worsening of pathologies, such ...</text>
</g>
<!-- E2&#45;&gt;C0 -->
<g id="edge5" class="edge">
<title>E2&#45;&gt;C0</title>
<path fill="none" stroke="black" stroke-dasharray="5,2" d="M539.74,-42.25C561.42,-43.74 584.14,-45.31 606.18,-46.82"/>
<polygon fill="black" stroke="black" points="605.9,-50.31 616.12,-47.5 606.38,-43.33 605.9,-50.31"/>
<text xml:space="preserve" text-anchor="middle" x="578.75" y="-47.61" font-family="Helvetica,sans-Serif" font-size="9.00">attacks</text>
</g>
</g>
</svg>
